{"accessors" : [{"bufferView" : 0, "byteOffset" : 0, "componentType" : 5123, "count" : 14454, "type" : "SCALAR", "max" : [14453], "min" : [0]}, {"bufferView" : 1, "byteOffset" : 0, "componentType" : 5126, "count" : 14454, "type" : "VEC3", "max" : [21.55590057373047, 30.490800857543945, 36.11349868774414], "min" : [-21.55590057373047, -17.17919921875, 0.013519000262022018]}, {"bufferView" : 1, "byteOffset" : 12, "componentType" : 5126, "count" : 14454, "type" : "VEC3", "max" : [0.9999871850013733, 0.99965500831604, 0.999998927116394], "min" : [-0.9999871850013733, -0.9999290108680725, -1.0000044107437134]}, {"bufferView" : 1, "byteOffset" : 24, "componentType" : 5126, "count" : 14454, "type" : "VEC2", "max" : [1, -0.007786000147461891], "min" : [0, -0.9893890023231506]}, {"bufferView" : 0, "byteOffset" : 28908, "componentType" : 5123, "count" : 240, "type" : "SCALAR", "max" : [239], "min" : [0]}, {"bufferView" : 2, "byteOffset" : 0, "componentType" : 5126, "count" : 240, "type" : "VEC3", "max" : [6.755390167236328, -11.359100341796875, 26.084199905395508], "min" : [-6.755390167236328, -16.703800201416016, 19.397600173950195]}, {"bufferView" : 2, "byteOffset" : 12, "componentType" : 5126, "count" : 240, "type" : "VEC3", "max" : [0.9148960709571838, -0.37241074442863464, 0.49015820026397705], "min" : [-0.9148960709571838, -0.9453383684158325, 0.006446028593927622]}, {"bufferView" : 2, "byteOffset" : 24, "componentType" : 5126, "count" : 240, "type" : "VEC2", "max" : [0.48611000180244446, -1.7661099433898926], "min" : [0.013891000300645828, -1.9770699739456177]}, {"bufferView" : 0, "byteOffset" : 29388, "componentType" : 5123, "count" : 108, "type" : "SCALAR", "max" : [107], "min" : [0]}, {"bufferView" : 3, "byteOffset" : 0, "componentType" : 5126, "count" : 108, "type" : "VEC3", "max" : [2.738909959793091, -14.843700408935547, 20.28260040283203], "min" : [-2.738909959793091, -17.15519905090332, 16.118900299072266]}, {"bufferView" : 3, "byteOffset" : 12, "componentType" : 5126, "count" : 108, "type" : "VEC3", "max" : [0.4853009879589081, -0.5600025653839111, 0.4790198802947998], "min" : [-0.4853009879589081, -0.9987534880638123, -0.794649600982666]}, {"bufferView" : 3, "byteOffset" : 24, "componentType" : 5126, "count" : 108, "type" : "VEC2", "max" : [0.481469988822937, -2.773360013961792], "min" : [0.01853499934077263, -2.98471999168396]}], "asset" : {"generator" : "Aspose.3D 20.9.1", "version" : "2.0"}, "buffers" : [{"uri" : "buffer.bin", "byteLength" : 503284}], "bufferViews" : [{"buffer" : 0, "byteOffset" : 0, "byteLength" : 29604, "target" : 34963}, {"buffer" : 0, "byteOffset" : 29608, "byteLength" : 462528, "byteStride" : 32, "target" : 34962}, {"buffer" : 0, "byteOffset" : 492140, "byteLength" : 7680, "byteStride" : 32, "target" : 34962}, {"buffer" : 0, "byteOffset" : 499824, "byteLength" : 3456, "byteStride" : 32, "target" : 34962}], "meshes" : [{"primitives" : [{"attributes" : {"POSITION" : 1, "NORMAL" : 2, "TEXCOORD_0" : 3}, "indices" : 0, "mode" : 4}, {"attributes" : {"POSITION" : 5, "NORMAL" : 6, "TEXCOORD_0" : 7}, "indices" : 4, "mode" : 4}, {"attributes" : {"POSITION" : 9, "NORMAL" : 10, "TEXCOORD_0" : 11}, "indices" : 8, "mode" : 4}]}], "nodes" : [{"mesh" : 0, "name" : "Eevee"}], "scene" : 0, "scenes" : [{"nodes" : [0]}]}